<svg width="60" height="30" viewBox="0 0 60 30" fill="none" xmlns="http://www.w3.org/2000/svg">
<path d="M11.847 7.43397H9.0315C8.98007 6.86853 8.87508 6.36628 8.71652 5.92722C8.55796 5.48152 8.3544 5.10233 8.10585 4.78967C7.8573 4.47702 7.57017 4.23753 7.24448 4.07122C6.92308 3.90492 6.57382 3.82176 6.1967 3.82176C5.51532 3.82176 4.92179 4.08453 4.41611 4.61006C3.91044 5.12894 3.51832 5.88731 3.23977 6.88516C2.96122 7.87635 2.82194 9.08042 2.82194 10.4974C2.82194 11.9542 2.96122 13.1783 3.23977 14.1695C3.52261 15.1607 3.91686 15.909 4.42254 16.4146C4.92822 16.9202 5.51318 17.173 6.17742 17.173C6.55025 17.173 6.89522 17.0965 7.21234 16.9435C7.53375 16.7905 7.81873 16.5676 8.06728 16.2749C8.31584 15.9756 8.52153 15.613 8.68438 15.1873C8.85151 14.7615 8.96722 14.2759 9.0315 13.7304L11.847 13.7504C11.7742 14.6883 11.592 15.5931 11.3006 16.4645C11.0135 17.3293 10.6257 18.1043 10.1371 18.7895C9.65288 19.468 9.07435 20.0069 8.40154 20.406C7.73302 20.7985 6.97664 20.9947 6.13242 20.9947C4.95822 20.9947 3.90829 20.5823 2.98264 19.7574C2.06128 18.9325 1.33276 17.7384 0.797086 16.1751C0.265695 14.6118 0 12.7192 0 10.4974C0 8.26884 0.269981 6.37293 0.809942 4.80963C1.3499 3.24634 2.08271 2.05557 3.00836 1.23733C3.934 0.412444 4.97536 0 6.13242 0C6.89522 0 7.60231 0.166308 8.2537 0.498925C8.90936 0.831541 9.49004 1.31716 9.99571 1.95578C10.5014 2.58775 10.9128 3.36275 11.2299 4.28077C11.5513 5.19879 11.757 6.24986 11.847 7.43397Z" fill="#010101"/>
<path d="M20.9846 6.15673C20.9331 5.3518 20.7124 4.72648 20.3225 4.28077C19.9325 3.83507 19.4033 3.61221 18.7347 3.61221C18.2805 3.61221 17.8969 3.712 17.5841 3.91157C17.2713 4.10449 17.0313 4.3739 16.8642 4.71982C16.7013 5.06575 16.6199 5.45823 16.6199 5.89729C16.6113 6.26317 16.6606 6.58248 16.7677 6.85522C16.8792 7.12797 17.0313 7.36413 17.2241 7.56369C17.417 7.75661 17.6398 7.92625 17.8927 8.0726C18.1455 8.2123 18.4155 8.33204 18.7026 8.43182L19.8854 8.87088C20.4596 9.07045 20.9867 9.33654 21.4667 9.66916C21.9466 10.0018 22.3623 10.4109 22.7137 10.8965C23.0651 11.3821 23.3373 11.9542 23.5301 12.6128C23.7272 13.2714 23.8279 14.0264 23.8322 14.8779C23.8279 16.1286 23.6222 17.2129 23.2151 18.1309C22.8123 19.0423 22.2295 19.7508 21.4667 20.2563C20.7082 20.7553 19.7932 21.0047 18.7219 21.0047C17.6591 21.0047 16.7334 20.7519 15.9449 20.2464C15.1607 19.7408 14.5479 18.9924 14.1065 18.0012C13.6694 17.0033 13.4401 15.7693 13.4187 14.2992H16.1121C16.1421 14.9844 16.2685 15.5565 16.4913 16.0155C16.7184 16.4678 17.0206 16.8104 17.3977 17.0433C17.7791 17.2694 18.2098 17.3825 18.6897 17.3825C19.1611 17.3825 19.5704 17.2761 19.9175 17.0632C20.2689 16.8503 20.541 16.5543 20.7339 16.1751C20.9267 15.7959 21.0231 15.3602 21.0231 14.8679C21.0231 14.4089 20.9353 14.0231 20.7596 13.7104C20.5882 13.3978 20.3353 13.1317 20.0011 12.9122C19.6711 12.6926 19.2661 12.4931 18.7862 12.3135L17.3527 11.7547C16.2428 11.3356 15.3664 10.6803 14.7236 9.7889C14.0808 8.89749 13.7615 7.69674 13.7658 6.18666C13.7615 4.94933 13.9736 3.86833 14.4022 2.94366C14.835 2.01898 15.4285 1.2972 16.1828 0.778322C16.937 0.259441 17.7941 0 18.754 0C19.7311 0 20.5839 0.259441 21.3124 0.778322C22.0452 1.2972 22.6152 2.01898 23.0223 2.94366C23.4294 3.86833 23.6394 4.93935 23.6522 6.15673H20.9846Z" fill="#010101"/>
<path d="M25.7044 20.7153V0.279398H30.9755C31.944 0.279398 32.7518 0.502251 33.3989 0.947957C34.046 1.39366 34.5324 2.01233 34.858 2.80396C35.1837 3.58893 35.3466 4.49365 35.3466 5.51811C35.3466 6.31638 35.2437 7.0182 35.038 7.62357C34.8323 8.22228 34.5495 8.71455 34.1895 9.10038C33.8338 9.47956 33.4267 9.74898 32.9682 9.90864V10.1082C33.4696 10.1415 33.9388 10.361 34.3759 10.7668C34.8173 11.1726 35.1752 11.7414 35.4494 12.4731C35.7237 13.1982 35.8608 14.063 35.8608 15.0675C35.8608 16.1518 35.6873 17.1198 35.3402 17.9713C34.9973 18.8161 34.4895 19.4847 33.8167 19.9769C33.1439 20.4692 32.3147 20.7153 31.329 20.7153H25.7044ZM28.4878 17.183H30.7569C31.5326 17.183 32.0982 16.9535 32.4539 16.4944C32.8096 16.0288 32.9875 15.4101 32.9875 14.6384C32.9875 14.073 32.8996 13.5741 32.7239 13.1417C32.5482 12.7093 32.2975 12.37 31.9718 12.1239C31.6504 11.8777 31.2669 11.7547 30.8212 11.7547H28.4878V17.183ZM28.4878 8.83096H30.5512C30.9326 8.83096 31.2712 8.72785 31.5669 8.52163C31.8668 8.30876 32.1025 8.0094 32.2739 7.62357C32.4496 7.23773 32.5375 6.77539 32.5375 6.23656C32.5375 5.49815 32.3682 4.90276 32.0297 4.45041C31.6954 3.99805 31.2197 3.77187 30.6026 3.77187H28.4878V8.83096Z" fill="#010101"/>
<path d="M49.2876 7.43397H46.472C46.4206 6.86853 46.3156 6.36628 46.1571 5.92722C45.9985 5.48152 45.7949 5.10233 45.5464 4.78967C45.2978 4.47702 45.0107 4.23753 44.685 4.07122C44.3636 3.90492 44.0144 3.82176 43.6372 3.82176C42.9559 3.82176 42.3623 4.08453 41.8567 4.61006C41.351 5.12894 40.9589 5.88731 40.6803 6.88516C40.4018 7.87635 40.2625 9.08042 40.2625 10.4974C40.2625 11.9542 40.4018 13.1783 40.6803 14.1695C40.9631 15.1607 41.3574 15.909 41.8631 16.4146C42.3688 16.9202 42.9537 17.173 43.618 17.173C43.9908 17.173 44.3358 17.0965 44.6529 16.9435C44.9743 16.7905 45.2593 16.5676 45.5078 16.2749C45.7564 15.9756 45.9621 15.613 46.1249 15.1873C46.2921 14.7615 46.4078 14.2759 46.472 13.7304L49.2876 13.7504C49.2147 14.6883 49.0326 15.5931 48.7412 16.4645C48.454 17.3293 48.0662 18.1043 47.5777 18.7895C47.0934 19.468 46.5149 20.0069 45.8421 20.406C45.1736 20.7985 44.4172 20.9947 43.573 20.9947C42.3988 20.9947 41.3488 20.5823 40.4232 19.7574C39.5018 18.9325 38.7733 17.7384 38.2376 16.1751C37.7062 14.6118 37.4405 12.7192 37.4405 10.4974C37.4405 8.26884 37.7105 6.37293 38.2505 4.80963C38.7904 3.24634 39.5232 2.05557 40.4489 1.23733C41.3745 0.412444 42.4159 0 43.573 0C44.3358 0 45.0429 0.166308 45.6942 0.498925C46.3499 0.831541 46.9306 1.31716 47.4363 1.95578C47.9419 2.58775 48.3533 3.36275 48.6705 4.28077C48.9919 5.19879 49.1976 6.24986 49.2876 7.43397Z" fill="#010101"/>
<path d="M51.2835 20.7153V0.279398H60V3.84172H54.0669V8.71122H59.4215V12.2735H54.0669V20.7153H51.2835Z" fill="#010101"/>
<path d="M0.0799603 26.5068V26.1913H1.49888V26.5068H0.903969V29.1281H0.674873V26.5068H0.0799603Z" fill="#23C36C"/>
<path d="M2.52404 28.2276V26.9255H2.74205V29.1281H2.52404V28.7553H2.50926C2.47601 28.8671 2.42428 28.9623 2.35407 29.0407C2.28386 29.1181 2.19518 29.1568 2.08802 29.1568C1.99934 29.1568 1.92051 29.1267 1.85153 29.0665C1.78256 29.0053 1.72836 28.9135 1.68895 28.7911C1.64953 28.6678 1.62983 28.5125 1.62983 28.3251V26.9255H1.84784V28.3021C1.84784 28.4628 1.87678 28.5909 1.93467 28.6865C1.99318 28.7821 2.0677 28.8299 2.15823 28.8299C2.21242 28.8299 2.26754 28.8083 2.32358 28.7653C2.38024 28.7223 2.42766 28.6563 2.46585 28.5674C2.50464 28.4785 2.52404 28.3652 2.52404 28.2276Z" fill="#23C36C"/>
<path d="M3.14136 29.1281V26.9255H3.35198V27.2582H3.36676C3.39262 27.1492 3.43943 27.0608 3.50717 26.9929C3.57492 26.925 3.65128 26.8911 3.73627 26.8911C3.75228 26.8911 3.7723 26.8916 3.79631 26.8925C3.82033 26.8935 3.8385 26.8949 3.85082 26.8968V27.241C3.84343 27.2381 3.82649 27.2338 3.80001 27.2281C3.77414 27.2214 3.74674 27.218 3.71779 27.218C3.64882 27.218 3.58723 27.2405 3.53304 27.2854C3.47946 27.3294 3.43697 27.3906 3.40556 27.469C3.37476 27.5464 3.35937 27.6349 3.35937 27.7343V29.1281H3.14136Z" fill="#23C36C"/>
<path d="M4.32726 27.8031V29.1281H4.10924V26.9255H4.31987V27.2697H4.33834C4.3716 27.1578 4.4221 27.068 4.48984 27.0001C4.55758 26.9312 4.64504 26.8968 4.75219 26.8968C4.84827 26.8968 4.93233 26.9274 5.00438 26.9886C5.07644 27.0488 5.13248 27.1406 5.17251 27.2639C5.21254 27.3863 5.23256 27.5412 5.23256 27.7285V29.1281H5.01455V27.7515C5.01455 27.5785 4.9856 27.4437 4.92771 27.3471C4.86982 27.2496 4.79038 27.2008 4.68938 27.2008C4.61978 27.2008 4.55758 27.2243 4.50277 27.2711C4.44858 27.3179 4.40578 27.3863 4.37437 27.4762C4.34296 27.566 4.32726 27.675 4.32726 27.8031Z" fill="#23C36C"/>
<path d="M5.63094 29.1281V26.9255H5.84895V29.1281H5.63094ZM5.74179 26.5584C5.6993 26.5584 5.66265 26.5359 5.63186 26.491C5.60168 26.4461 5.58659 26.3921 5.58659 26.329C5.58659 26.2659 5.60168 26.2119 5.63186 26.1669C5.66265 26.122 5.6993 26.0995 5.74179 26.0995C5.78428 26.0995 5.82062 26.122 5.85079 26.1669C5.88159 26.2119 5.89698 26.2659 5.89698 26.329C5.89698 26.3921 5.88159 26.4461 5.85079 26.491C5.82062 26.5359 5.78428 26.5584 5.74179 26.5584Z" fill="#23C36C"/>
<path d="M6.46626 27.8031V29.1281H6.24825V26.9255H6.45887V27.2697H6.47735C6.5106 27.1578 6.5611 27.068 6.62885 27.0001C6.69659 26.9312 6.78404 26.8968 6.8912 26.8968C6.98727 26.8968 7.07134 26.9274 7.14339 26.9886C7.21544 27.0488 7.27149 27.1406 7.31152 27.2639C7.35155 27.3863 7.37156 27.5412 7.37156 27.7285V29.1281H7.15355V27.7515C7.15355 27.5785 7.12461 27.4437 7.06672 27.3471C7.00883 27.2496 6.92938 27.2008 6.82838 27.2008C6.75879 27.2008 6.69659 27.2243 6.64178 27.2711C6.58758 27.3179 6.54478 27.3863 6.51337 27.4762C6.48197 27.566 6.46626 27.675 6.46626 27.8031Z" fill="#23C36C"/>
<path d="M8.34268 30C8.23737 30 8.14684 29.979 8.07109 29.9369C7.99534 29.8958 7.93222 29.8413 7.88172 29.7734C7.83183 29.7065 7.79211 29.6348 7.76255 29.5583L7.93622 29.369C7.95593 29.4092 7.98087 29.4551 8.01105 29.5067C8.04122 29.5593 8.08249 29.6047 8.13483 29.6429C8.1878 29.6821 8.25708 29.7017 8.34268 29.7017C8.45723 29.7017 8.55176 29.6587 8.62628 29.5727C8.7008 29.4866 8.73806 29.3518 8.73806 29.1683V28.7209H8.71958C8.70357 28.761 8.68079 28.8107 8.65122 28.87C8.62228 28.9283 8.5804 28.9804 8.52559 29.0263C8.4714 29.0712 8.39811 29.0937 8.30573 29.0937C8.19118 29.0937 8.08834 29.0516 7.99719 28.9675C7.90666 28.8834 7.83491 28.761 7.78195 28.6004C7.7296 28.4398 7.70343 28.2448 7.70343 28.0153C7.70343 27.7897 7.72899 27.5933 7.7801 27.426C7.83122 27.2577 7.90235 27.1277 7.99349 27.0359C8.08464 26.9432 8.18995 26.8968 8.30943 26.8968C8.40181 26.8968 8.47509 26.9207 8.52929 26.9685C8.5841 27.0154 8.62597 27.0689 8.65492 27.1291C8.68448 27.1884 8.70727 27.2372 8.72328 27.2754H8.74545V26.9255H8.95607V29.1912C8.95607 29.3805 8.92836 29.5344 8.87293 29.653C8.81812 29.7725 8.74422 29.8599 8.65122 29.9154C8.55885 29.9718 8.456 30 8.34268 30ZM8.33529 28.7897C8.42274 28.7897 8.49665 28.7586 8.557 28.6965C8.61735 28.6344 8.66323 28.545 8.69464 28.4283C8.72605 28.3117 8.74175 28.1721 8.74175 28.0096C8.74175 27.8509 8.72636 27.7109 8.69557 27.5894C8.66477 27.468 8.6192 27.3729 8.55885 27.3041C8.49849 27.2353 8.42398 27.2008 8.33529 27.2008C8.24291 27.2008 8.16593 27.2372 8.10435 27.3098C8.04338 27.3825 7.9975 27.48 7.96671 27.6024C7.93653 27.7247 7.92144 27.8605 7.92144 28.0096C7.92144 28.1626 7.93684 28.2978 7.96763 28.4154C7.99904 28.5321 8.04523 28.6238 8.1062 28.6908C8.16778 28.7567 8.24415 28.7897 8.33529 28.7897Z" fill="#23C36C"/>
<path d="M10.6632 29.174C10.5302 29.174 10.4156 29.1253 10.3196 29.0277C10.2235 28.9302 10.1496 28.7959 10.0979 28.6248C10.0461 28.4537 10.0203 28.2582 10.0203 28.0383C10.0203 27.8146 10.0467 27.6172 10.0997 27.446C10.1533 27.274 10.2278 27.1397 10.3233 27.0431C10.4193 26.9456 10.5314 26.8968 10.6595 26.8968C10.7593 26.8968 10.8492 26.9255 10.9293 26.9829C11.0093 27.0402 11.0749 27.1205 11.126 27.2238C11.1771 27.327 11.2089 27.4475 11.2212 27.5851H11.0032C10.9865 27.4848 10.9496 27.3959 10.8923 27.3184C10.8356 27.24 10.7593 27.2008 10.6632 27.2008C10.5782 27.2008 10.5037 27.2353 10.4397 27.3041C10.3762 27.372 10.3266 27.468 10.2909 27.5923C10.2558 27.7156 10.2383 27.8605 10.2383 28.0268C10.2383 28.197 10.2555 28.3452 10.29 28.4714C10.3251 28.5975 10.3744 28.6955 10.4378 28.7653C10.5019 28.8351 10.577 28.87 10.6632 28.87C10.7199 28.87 10.7713 28.8547 10.8175 28.8241C10.8637 28.7935 10.9028 28.7496 10.9348 28.6922C10.9668 28.6348 10.9896 28.566 11.0032 28.4857H11.2212C11.2089 28.6157 11.1784 28.7328 11.1297 28.837C11.0817 28.9403 11.0179 29.0225 10.9385 29.0837C10.8597 29.1439 10.7679 29.174 10.6632 29.174Z" fill="#23C36C"/>
<path d="M11.7579 26.1913V29.1281H11.5399V26.1913H11.7579Z" fill="#23C36C"/>
<path d="M12.1572 29.1281V26.9255H12.3752V29.1281H12.1572ZM12.268 26.5584C12.2255 26.5584 12.1889 26.5359 12.1581 26.491C12.1279 26.4461 12.1128 26.3921 12.1128 26.329C12.1128 26.2659 12.1279 26.2119 12.1581 26.1669C12.1889 26.122 12.2255 26.0995 12.268 26.0995C12.3105 26.0995 12.3469 26.122 12.377 26.1669C12.4078 26.2119 12.4232 26.2659 12.4232 26.329C12.4232 26.3921 12.4078 26.4461 12.377 26.491C12.3469 26.5359 12.3105 26.5584 12.268 26.5584Z" fill="#23C36C"/>
<path d="M12.7745 29.1281V26.9255H12.9851V27.2697H13.0036C13.0332 27.1521 13.0809 27.0608 13.1468 26.9958C13.2127 26.9298 13.2918 26.8968 13.3842 26.8968C13.4778 26.8968 13.5557 26.9298 13.6179 26.9958C13.6807 27.0608 13.7297 27.1521 13.7648 27.2697H13.7796C13.8159 27.1559 13.8704 27.0656 13.9431 26.9986C14.0158 26.9308 14.1029 26.8968 14.2045 26.8968C14.3314 26.8968 14.4351 26.9585 14.5158 27.0818C14.5965 27.2042 14.6368 27.3949 14.6368 27.654V29.1281H14.4188V27.654C14.4188 27.4915 14.3902 27.3753 14.3329 27.3055C14.2756 27.2357 14.2082 27.2008 14.1306 27.2008C14.0308 27.2008 13.9535 27.2477 13.8987 27.3414C13.8439 27.4341 13.8165 27.5517 13.8165 27.6941V29.1281H13.5948V27.6196C13.5948 27.4943 13.5686 27.3935 13.5163 27.317C13.4639 27.2396 13.3965 27.2008 13.314 27.2008C13.2573 27.2008 13.2044 27.2243 13.1551 27.2711C13.1064 27.3179 13.067 27.383 13.0369 27.4661C13.0073 27.5483 12.9925 27.6435 12.9925 27.7515V29.1281H12.7745Z" fill="#23C36C"/>
<path d="M15.453 29.1798C15.3631 29.1798 15.2815 29.1535 15.2082 29.1009C15.1349 29.0473 15.0767 28.9704 15.0336 28.87C14.9905 28.7687 14.9689 28.6463 14.9689 28.5029C14.9689 28.3767 14.9849 28.2744 15.017 28.196C15.049 28.1167 15.0918 28.0545 15.1454 28.0096C15.199 27.9647 15.2581 27.9312 15.3227 27.9092C15.388 27.8863 15.4536 27.8681 15.5195 27.8547C15.6057 27.8375 15.6756 27.8246 15.7292 27.816C15.7834 27.8065 15.8228 27.7907 15.8474 27.7687C15.8727 27.7467 15.8853 27.7085 15.8853 27.654V27.6425C15.8853 27.501 15.8604 27.3911 15.8105 27.3127C15.7612 27.2343 15.6864 27.1951 15.586 27.1951C15.4819 27.1951 15.4003 27.2305 15.3412 27.3012C15.2821 27.372 15.2405 27.4475 15.2165 27.5278L15.0096 27.4131C15.0465 27.2792 15.0958 27.175 15.1574 27.1005C15.2196 27.0249 15.2873 26.9724 15.3606 26.9427C15.4345 26.9121 15.5072 26.8968 15.5786 26.8968C15.6242 26.8968 15.6765 26.9054 15.7357 26.9226C15.7954 26.9389 15.853 26.9728 15.9084 27.0245C15.9645 27.0761 16.011 27.154 16.0479 27.2582C16.0849 27.3624 16.1033 27.502 16.1033 27.6769V29.1281H15.8853V28.8299H15.8742C15.8595 28.8777 15.8348 28.9288 15.8003 28.9833C15.7658 29.0378 15.72 29.0842 15.6627 29.1224C15.6054 29.1606 15.5355 29.1798 15.453 29.1798ZM15.4862 28.8757C15.5725 28.8757 15.6451 28.8495 15.7043 28.7969C15.764 28.7443 15.809 28.6764 15.8391 28.5932C15.8699 28.5101 15.8853 28.4226 15.8853 28.3308V28.0211C15.8761 28.0383 15.8558 28.0541 15.8244 28.0684C15.7936 28.0818 15.7578 28.0937 15.7172 28.1043C15.6772 28.1138 15.6381 28.1224 15.5999 28.1301C15.5623 28.1368 15.5318 28.1425 15.5084 28.1473C15.4518 28.1587 15.3988 28.1774 15.3495 28.2032C15.3009 28.2281 15.2615 28.2658 15.2313 28.3165C15.2017 28.3662 15.1869 28.4341 15.1869 28.5201C15.1869 28.6377 15.215 28.7266 15.271 28.7868C15.3277 28.8461 15.3994 28.8757 15.4862 28.8757Z" fill="#23C36C"/>
<path d="M17.1183 26.9255V27.2123H16.383V26.9255H17.1183ZM16.5973 26.3978H16.8153V28.4972C16.8153 28.5928 16.8243 28.6645 16.8421 28.7123C16.8606 28.7591 16.884 28.7907 16.9123 28.8069C16.9413 28.8222 16.9718 28.8299 17.0038 28.8299C17.0278 28.8299 17.0475 28.8279 17.0629 28.8241C17.0783 28.8193 17.0906 28.8155 17.0999 28.8126L17.1442 29.1167C17.1294 29.1253 17.1088 29.1339 17.0823 29.1425C17.0558 29.152 17.0223 29.1568 16.9816 29.1568C16.92 29.1568 16.8597 29.1363 16.8006 29.0951C16.742 29.054 16.6934 28.9914 16.6546 28.9073C16.6164 28.8232 16.5973 28.717 16.5973 28.5889V26.3978Z" fill="#23C36C"/>
<path d="M18.0259 29.174C17.8892 29.174 17.7713 29.1272 17.6721 29.0335C17.5736 28.9388 17.4975 28.8069 17.444 28.6377C17.391 28.4675 17.3645 28.2696 17.3645 28.044C17.3645 27.8184 17.391 27.6196 17.444 27.4475C17.4975 27.2744 17.5721 27.1397 17.6675 27.0431C17.7636 26.9456 17.8757 26.8968 18.0038 26.8968C18.0777 26.8968 18.1507 26.9159 18.2227 26.9542C18.2948 26.9924 18.3604 27.0546 18.4195 27.1406C18.4786 27.2257 18.5257 27.3385 18.5608 27.479C18.5959 27.6196 18.6135 27.7926 18.6135 27.9981V28.1415H17.5197V27.849H18.3918C18.3918 27.7247 18.3757 27.6138 18.3437 27.5163C18.3123 27.4188 18.2674 27.3418 18.2089 27.2854C18.151 27.229 18.0826 27.2008 18.0038 27.2008C17.9169 27.2008 17.8418 27.2343 17.7784 27.3012C17.7156 27.3672 17.6672 27.4532 17.6333 27.5593C17.5995 27.6655 17.5825 27.7792 17.5825 27.9006V28.0956C17.5825 28.262 17.601 28.403 17.638 28.5187C17.6755 28.6334 17.7276 28.7209 17.7941 28.7811C17.8606 28.8404 17.9379 28.87 18.0259 28.87C18.0832 28.87 18.1349 28.8576 18.1811 28.8327C18.2279 28.8069 18.2683 28.7687 18.3022 28.718C18.336 28.6664 18.3622 28.6023 18.3807 28.5258L18.5913 28.6176C18.5691 28.7285 18.5319 28.826 18.4795 28.9102C18.4272 28.9933 18.3625 29.0583 18.2855 29.1052C18.2085 29.1511 18.122 29.174 18.0259 29.174Z" fill="#23C36C"/>
<path d="M19.6767 29.1281V26.9255H19.8874V27.2582H19.9021C19.928 27.1492 19.9748 27.0608 20.0425 26.9929C20.1103 26.925 20.1867 26.8911 20.2716 26.8911C20.2877 26.8911 20.3077 26.8916 20.3317 26.8925C20.3557 26.8935 20.3739 26.8949 20.3862 26.8968V27.241C20.3788 27.2381 20.3619 27.2338 20.3354 27.2281C20.3095 27.2214 20.2821 27.218 20.2532 27.218C20.1842 27.218 20.1226 27.2405 20.0684 27.2854C20.0148 27.3294 19.9723 27.3906 19.9409 27.469C19.9101 27.5464 19.8947 27.6349 19.8947 27.7343V29.1281H19.6767Z" fill="#23C36C"/>
<path d="M20.6446 29.1281V26.9255H20.8626V29.1281H20.6446ZM20.7555 26.5584C20.713 26.5584 20.6763 26.5359 20.6455 26.491C20.6154 26.4461 20.6003 26.3921 20.6003 26.329C20.6003 26.2659 20.6154 26.2119 20.6455 26.1669C20.6763 26.122 20.713 26.0995 20.7555 26.0995C20.798 26.0995 20.8343 26.122 20.8645 26.1669C20.8953 26.2119 20.9107 26.2659 20.9107 26.329C20.9107 26.3921 20.8953 26.4461 20.8645 26.491C20.8343 26.5359 20.798 26.5584 20.7555 26.5584Z" fill="#23C36C"/>
<path d="M22.267 27.4188L22.0712 27.5048C22.0588 27.4542 22.0407 27.4049 22.0167 27.3571C21.9933 27.3084 21.9612 27.2682 21.9206 27.2367C21.8799 27.2051 21.8279 27.1894 21.7645 27.1894C21.6776 27.1894 21.6053 27.2204 21.5474 27.2826C21.4901 27.3438 21.4615 27.4217 21.4615 27.5163C21.4615 27.6004 21.4812 27.6669 21.5206 27.7156C21.56 27.7644 21.6216 27.805 21.7053 27.8375L21.916 27.9178C22.0428 27.9656 22.1374 28.0388 22.1996 28.1372C22.2618 28.2347 22.2929 28.3605 22.2929 28.5144C22.2929 28.6406 22.2695 28.7534 22.2227 28.8528C22.1765 28.9522 22.1118 29.0306 22.0287 29.088C21.9455 29.1453 21.8488 29.174 21.7386 29.174C21.5939 29.174 21.4741 29.1253 21.3793 29.0277C21.2844 28.9302 21.2244 28.7878 21.1991 28.6004L21.406 28.5201C21.4257 28.6387 21.463 28.7276 21.5178 28.7868C21.5732 28.8461 21.6456 28.8757 21.7349 28.8757C21.8365 28.8757 21.9172 28.8423 21.9769 28.7754C22.0373 28.7075 22.0675 28.6262 22.0675 28.5316C22.0675 28.4551 22.0502 28.3911 22.0157 28.3394C21.9812 28.2868 21.9283 28.2477 21.8568 28.2218L21.6204 28.1358C21.4904 28.088 21.395 28.0139 21.334 27.9135C21.2736 27.8122 21.2435 27.6855 21.2435 27.5335C21.2435 27.4092 21.2659 27.2993 21.3109 27.2037C21.3565 27.1081 21.4184 27.0331 21.4966 26.9786C21.5754 26.9241 21.6647 26.8968 21.7645 26.8968C21.9049 26.8968 22.0151 26.9446 22.0952 27.0402C22.1759 27.1358 22.2331 27.262 22.267 27.4188Z" fill="#23C36C"/>
<path d="M22.8243 28.3251L22.8206 27.9064H22.8649L23.4857 26.9255H23.7554L23.094 27.9637H23.0755L22.8243 28.3251ZM22.621 29.1281V26.1913H22.8391V29.1281H22.621ZM23.5226 29.1281L22.9684 28.0383L23.1236 27.8031L23.7998 29.1281H23.5226Z" fill="#23C36C"/>
<path d="M25.0411 27.4188L24.8453 27.5048C24.8329 27.4542 24.8148 27.4049 24.7908 27.3571C24.7674 27.3084 24.7353 27.2682 24.6947 27.2367C24.654 27.2051 24.602 27.1894 24.5386 27.1894C24.4517 27.1894 24.3794 27.2204 24.3215 27.2826C24.2642 27.3438 24.2356 27.4217 24.2356 27.5163C24.2356 27.6004 24.2553 27.6669 24.2947 27.7156C24.3341 27.7644 24.3957 27.805 24.4794 27.8375L24.6901 27.9178C24.8169 27.9656 24.9115 28.0388 24.9737 28.1372C25.0359 28.2347 25.067 28.3605 25.067 28.5144C25.067 28.6406 25.0436 28.7534 24.9968 28.8528C24.9506 28.9522 24.8859 29.0306 24.8028 29.088C24.7196 29.1453 24.6229 29.174 24.5127 29.174C24.368 29.174 24.2482 29.1253 24.1534 29.0277C24.0585 28.9302 23.9985 28.7878 23.9732 28.6004L24.1801 28.5201C24.1999 28.6387 24.2371 28.7276 24.2919 28.7868C24.3473 28.8461 24.4197 28.8757 24.509 28.8757C24.6106 28.8757 24.6913 28.8423 24.751 28.7754C24.8114 28.7075 24.8416 28.6262 24.8416 28.5316C24.8416 28.4551 24.8243 28.3911 24.7898 28.3394C24.7553 28.2868 24.7024 28.2477 24.6309 28.2218L24.3945 28.1358C24.2645 28.088 24.1691 28.0139 24.1081 27.9135C24.0477 27.8122 24.0176 27.6855 24.0176 27.5335C24.0176 27.4092 24.04 27.2993 24.085 27.2037C24.1306 27.1081 24.1925 27.0331 24.2707 26.9786C24.3495 26.9241 24.4388 26.8968 24.5386 26.8968C24.679 26.8968 24.7892 26.9446 24.8693 27.0402C24.95 27.1358 25.0072 27.262 25.0411 27.4188Z" fill="#23C36C"/>
<path d="M26.1268 29.1281V26.9255H26.3448V29.1281H26.1268ZM26.2376 26.5584C26.1951 26.5584 26.1585 26.5359 26.1277 26.491C26.0975 26.4461 26.0824 26.3921 26.0824 26.329C26.0824 26.2659 26.0975 26.2119 26.1277 26.1669C26.1585 26.122 26.1951 26.0995 26.2376 26.0995C26.2801 26.0995 26.3165 26.122 26.3466 26.1669C26.3774 26.2119 26.3928 26.2659 26.3928 26.329C26.3928 26.3921 26.3774 26.4461 26.3466 26.491C26.3165 26.5359 26.2801 26.5584 26.2376 26.5584Z" fill="#23C36C"/>
<path d="M26.9621 27.8031V29.1281H26.7441V26.9255H26.9547V27.2697H26.9732C27.0064 27.1578 27.0569 27.068 27.1247 27.0001C27.1924 26.9312 27.2799 26.8968 27.387 26.8968C27.4831 26.8968 27.5672 26.9274 27.6392 26.9886C27.7113 27.0488 27.7673 27.1406 27.8074 27.2639C27.8474 27.3863 27.8674 27.5412 27.8674 27.7285V29.1281H27.6494V27.7515C27.6494 27.5785 27.6204 27.4437 27.5626 27.3471C27.5047 27.2496 27.4252 27.2008 27.3242 27.2008C27.2546 27.2008 27.1924 27.2243 27.1376 27.2711C27.0834 27.3179 27.0406 27.3863 27.0092 27.4762C26.9778 27.566 26.9621 27.675 26.9621 27.8031Z" fill="#23C36C"/>
<path d="M28.8829 26.9255V27.2123H28.1475V26.9255H28.8829ZM28.3619 26.3978H28.5799V28.4972C28.5799 28.5928 28.5888 28.6645 28.6067 28.7123C28.6251 28.7591 28.6485 28.7907 28.6769 28.8069C28.7058 28.8222 28.7363 28.8299 28.7683 28.8299C28.7923 28.8299 28.812 28.8279 28.8274 28.8241C28.8428 28.8193 28.8551 28.8155 28.8644 28.8126L28.9087 29.1167C28.8939 29.1253 28.8733 29.1339 28.8468 29.1425C28.8204 29.152 28.7868 29.1568 28.7461 29.1568C28.6846 29.1568 28.6242 29.1363 28.5651 29.0951C28.5066 29.054 28.4579 28.9914 28.4191 28.9073C28.3809 28.8232 28.3619 28.717 28.3619 28.5889V26.3978Z" fill="#23C36C"/>
<path d="M29.772 29.174C29.6439 29.174 29.5315 29.1267 29.4348 29.0321C29.3387 28.9374 29.2636 28.805 29.2094 28.6348C29.1558 28.4647 29.129 28.2658 29.129 28.0383C29.129 27.8089 29.1558 27.6086 29.2094 27.4374C29.2636 27.2663 29.3387 27.1334 29.4348 27.0388C29.5315 26.9441 29.6439 26.8968 29.772 26.8968C29.9001 26.8968 30.0122 26.9441 30.1083 27.0388C30.2049 27.1334 30.2801 27.2663 30.3337 27.4374C30.3878 27.6086 30.4149 27.8089 30.4149 28.0383C30.4149 28.2658 30.3878 28.4647 30.3337 28.6348C30.2801 28.805 30.2049 28.9374 30.1083 29.0321C30.0122 29.1267 29.9001 29.174 29.772 29.174ZM29.772 28.87C29.8693 28.87 29.9494 28.8313 30.0122 28.7539C30.075 28.6764 30.1215 28.5746 30.1517 28.4484C30.1818 28.3222 30.1969 28.1855 30.1969 28.0383C30.1969 27.8911 30.1818 27.7539 30.1517 27.6267C30.1215 27.4996 30.075 27.3968 30.0122 27.3184C29.9494 27.24 29.8693 27.2008 29.772 27.2008C29.6747 27.2008 29.5946 27.24 29.5318 27.3184C29.469 27.3968 29.4225 27.4996 29.3923 27.6267C29.3621 27.7539 29.3471 27.8911 29.3471 28.0383C29.3471 28.1855 29.3621 28.3222 29.3923 28.4484C29.4225 28.5746 29.469 28.6764 29.5318 28.7539C29.5946 28.8313 29.6747 28.87 29.772 28.87Z" fill="#23C36C"/>
<path d="M31.5089 29.1281V26.1913H31.7269V27.2754H31.7454C31.7614 27.2372 31.7836 27.1884 31.8119 27.1291C31.8409 27.0689 31.8821 27.0154 31.9357 26.9685C31.9899 26.9207 32.0632 26.8968 32.1556 26.8968C32.275 26.8968 32.3804 26.9432 32.4715 27.0359C32.5627 27.1287 32.6338 27.2601 32.6849 27.4303C32.736 27.6004 32.7616 27.8012 32.7616 28.0326C32.7616 28.2658 32.736 28.468 32.6849 28.6391C32.6338 28.8093 32.563 28.9412 32.4724 29.0349C32.3819 29.1277 32.2775 29.174 32.1593 29.174C32.0681 29.174 31.9951 29.1506 31.9403 29.1038C31.8855 29.056 31.8433 29.0019 31.8138 28.9417C31.7842 28.8805 31.7614 28.8299 31.7454 28.7897H31.7196V29.1281H31.5089ZM31.7232 28.0268C31.7232 28.1932 31.7389 28.3399 31.7704 28.4671C31.8018 28.5932 31.8476 28.6922 31.908 28.7639C31.9684 28.8346 32.0423 28.87 32.1297 28.87C32.2209 28.87 32.2969 28.8327 32.3579 28.7582C32.4195 28.6826 32.4657 28.5813 32.4964 28.4542C32.5279 28.326 32.5436 28.1836 32.5436 28.0268C32.5436 27.8719 32.5282 27.7324 32.4974 27.6081C32.4672 27.4829 32.4213 27.3839 32.3597 27.3113C32.2988 27.2376 32.2221 27.2008 32.1297 27.2008C32.041 27.2008 31.9665 27.2357 31.9062 27.3055C31.8458 27.3744 31.8002 27.4709 31.7694 27.5952C31.7386 27.7185 31.7232 27.8624 31.7232 28.0268Z" fill="#23C36C"/>
<path d="M33.9893 28.2276V26.9255H34.2073V29.1281H33.9893V28.7553H33.9745C33.9412 28.8671 33.8895 28.9623 33.8193 29.0407C33.7491 29.1181 33.6604 29.1568 33.5532 29.1568C33.4646 29.1568 33.3857 29.1267 33.3168 29.0665C33.2478 29.0053 33.1936 28.9135 33.1542 28.7911C33.1148 28.6678 33.0951 28.5125 33.0951 28.3251V26.9255H33.3131V28.3021C33.3131 28.4628 33.342 28.5909 33.3999 28.6865C33.4584 28.7821 33.5329 28.8299 33.6235 28.8299C33.6776 28.8299 33.7328 28.8083 33.7888 28.7653C33.8455 28.7223 33.8929 28.6563 33.9311 28.5674C33.9699 28.4785 33.9893 28.3652 33.9893 28.2276Z" fill="#23C36C"/>
<path d="M35.6117 27.4188L35.4158 27.5048C35.4035 27.4542 35.3853 27.4049 35.3613 27.3571C35.3379 27.3084 35.3059 27.2682 35.2652 27.2367C35.2246 27.2051 35.1726 27.1894 35.1091 27.1894C35.0223 27.1894 34.9499 27.2204 34.892 27.2826C34.8348 27.3438 34.8061 27.4217 34.8061 27.5163C34.8061 27.6004 34.8258 27.6669 34.8652 27.7156C34.9047 27.7644 34.9662 27.805 35.05 27.8375L35.2606 27.9178C35.3875 27.9656 35.482 28.0388 35.5442 28.1372C35.6064 28.2347 35.6375 28.3605 35.6375 28.5144C35.6375 28.6406 35.6141 28.7534 35.5673 28.8528C35.5211 28.9522 35.4565 29.0306 35.3733 29.088C35.2902 29.1453 35.1935 29.174 35.0833 29.174C34.9385 29.174 34.8187 29.1253 34.7239 29.0277C34.6291 28.9302 34.569 28.7878 34.5438 28.6004L34.7507 28.5201C34.7704 28.6387 34.8077 28.7276 34.8625 28.7868C34.9179 28.8461 34.9903 28.8757 35.0796 28.8757C35.1812 28.8757 35.2618 28.8423 35.3216 28.7754C35.3819 28.7075 35.4121 28.6262 35.4121 28.5316C35.4121 28.4551 35.3949 28.3911 35.3604 28.3394C35.3259 28.2868 35.2729 28.2477 35.2015 28.2218L34.965 28.1358C34.8351 28.088 34.7396 28.0139 34.6786 27.9135C34.6183 27.8122 34.5881 27.6855 34.5881 27.5335C34.5881 27.4092 34.6106 27.2993 34.6555 27.2037C34.7011 27.1081 34.763 27.0331 34.8412 26.9786C34.9201 26.9241 35.0093 26.8968 35.1091 26.8968C35.2495 26.8968 35.3598 26.9446 35.4398 27.0402C35.5205 27.1358 35.5778 27.262 35.6117 27.4188Z" fill="#23C36C"/>
<path d="M35.9657 29.1281V26.9255H36.1837V29.1281H35.9657ZM36.0765 26.5584C36.0341 26.5584 35.9974 26.5359 35.9666 26.491C35.9364 26.4461 35.9213 26.3921 35.9213 26.329C35.9213 26.2659 35.9364 26.2119 35.9666 26.1669C35.9974 26.122 36.0341 26.0995 36.0765 26.0995C36.119 26.0995 36.1554 26.122 36.1855 26.1669C36.2163 26.2119 36.2317 26.2659 36.2317 26.329C36.2317 26.3921 36.2163 26.4461 36.1855 26.491C36.1554 26.5359 36.119 26.5584 36.0765 26.5584Z" fill="#23C36C"/>
<path d="M36.801 27.8031V29.1281H36.583V26.9255H36.7936V27.2697H36.8121C36.8454 27.1578 36.8959 27.068 36.9636 27.0001C37.0313 26.9312 37.1188 26.8968 37.226 26.8968C37.322 26.8968 37.4061 26.9274 37.4781 26.9886C37.5502 27.0488 37.6062 27.1406 37.6463 27.2639C37.6863 27.3863 37.7063 27.5412 37.7063 27.7285V29.1281H37.4883V27.7515C37.4883 27.5785 37.4594 27.4437 37.4015 27.3471C37.3436 27.2496 37.2641 27.2008 37.1631 27.2008C37.0935 27.2008 37.0313 27.2243 36.9765 27.2711C36.9223 27.3179 36.8795 27.3863 36.8481 27.4762C36.8167 27.566 36.801 27.675 36.801 27.8031Z" fill="#23C36C"/>
<path d="M38.6996 29.174C38.5629 29.174 38.445 29.1272 38.3458 29.0335C38.2473 28.9388 38.1712 28.8069 38.1176 28.6377C38.0647 28.4675 38.0382 28.2696 38.0382 28.044C38.0382 27.8184 38.0647 27.6196 38.1176 27.4475C38.1712 27.2744 38.2457 27.1397 38.3412 27.0431C38.4373 26.9456 38.5493 26.8968 38.6774 26.8968C38.7513 26.8968 38.8243 26.9159 38.8964 26.9542C38.9684 26.9924 39.034 27.0546 39.0931 27.1406C39.1523 27.2257 39.1994 27.3385 39.2345 27.479C39.2696 27.6196 39.2871 27.7926 39.2871 27.9981V28.1415H38.1934V27.849H39.0654C39.0654 27.7247 39.0494 27.6138 39.0174 27.5163C38.986 27.4188 38.941 27.3418 38.8825 27.2854C38.8246 27.229 38.7563 27.2008 38.6774 27.2008C38.5906 27.2008 38.5155 27.2343 38.452 27.3012C38.3892 27.3672 38.3409 27.4532 38.307 27.5593C38.2731 27.6655 38.2562 27.7792 38.2562 27.9006V28.0956C38.2562 28.262 38.2747 28.403 38.3116 28.5187C38.3492 28.6334 38.4012 28.7209 38.4677 28.7811C38.5343 28.8404 38.6115 28.87 38.6996 28.87C38.7569 28.87 38.8086 28.8576 38.8548 28.8327C38.9016 28.8069 38.9419 28.7687 38.9758 28.718C39.0097 28.6664 39.0359 28.6023 39.0543 28.5258L39.265 28.6176C39.2428 28.7285 39.2055 28.826 39.1532 28.9102C39.1008 28.9933 39.0362 29.0583 38.9592 29.1052C38.8822 29.1511 38.7957 29.174 38.6996 29.174Z" fill="#23C36C"/>
<path d="M40.6238 27.4188L40.428 27.5048C40.4157 27.4542 40.3975 27.4049 40.3735 27.3571C40.3501 27.3084 40.3181 27.2682 40.2774 27.2367C40.2368 27.2051 40.1847 27.1894 40.1213 27.1894C40.0345 27.1894 39.9621 27.2204 39.9042 27.2826C39.8469 27.3438 39.8183 27.4217 39.8183 27.5163C39.8183 27.6004 39.838 27.6669 39.8774 27.7156C39.9168 27.7644 39.9784 27.805 40.0622 27.8375L40.2728 27.9178C40.3997 27.9656 40.4942 28.0388 40.5564 28.1372C40.6186 28.2347 40.6497 28.3605 40.6497 28.5144C40.6497 28.6406 40.6263 28.7534 40.5795 28.8528C40.5333 28.9522 40.4686 29.0306 40.3855 29.088C40.3024 29.1453 40.2057 29.174 40.0954 29.174C39.9507 29.174 39.8309 29.1253 39.7361 29.0277C39.6412 28.9302 39.5812 28.7878 39.556 28.6004L39.7629 28.5201C39.7826 28.6387 39.8198 28.7276 39.8747 28.7868C39.9301 28.8461 40.0024 28.8757 40.0917 28.8757C40.1934 28.8757 40.274 28.8423 40.3338 28.7754C40.3941 28.7075 40.4243 28.6262 40.4243 28.5316C40.4243 28.4551 40.4071 28.3911 40.3726 28.3394C40.3381 28.2868 40.2851 28.2477 40.2137 28.2218L39.9772 28.1358C39.8472 28.088 39.7518 28.0139 39.6908 27.9135C39.6305 27.8122 39.6003 27.6855 39.6003 27.5335C39.6003 27.4092 39.6228 27.2993 39.6677 27.2037C39.7133 27.1081 39.7752 27.0331 39.8534 26.9786C39.9322 26.9241 40.0215 26.8968 40.1213 26.8968C40.2617 26.8968 40.372 26.9446 40.452 27.0402C40.5327 27.1358 40.59 27.262 40.6238 27.4188Z" fill="#23C36C"/>
<path d="M41.9829 27.4188L41.7871 27.5048C41.7748 27.4542 41.7566 27.4049 41.7326 27.3571C41.7092 27.3084 41.6772 27.2682 41.6365 27.2367C41.5959 27.2051 41.5438 27.1894 41.4804 27.1894C41.3936 27.1894 41.3212 27.2204 41.2633 27.2826C41.206 27.3438 41.1774 27.4217 41.1774 27.5163C41.1774 27.6004 41.1971 27.6669 41.2365 27.7156C41.2759 27.7644 41.3375 27.805 41.4213 27.8375L41.6319 27.9178C41.7588 27.9656 41.8533 28.0388 41.9155 28.1372C41.9777 28.2347 42.0088 28.3605 42.0088 28.5144C42.0088 28.6406 41.9854 28.7534 41.9386 28.8528C41.8924 28.9522 41.8277 29.0306 41.7446 29.088C41.6615 29.1453 41.5648 29.174 41.4545 29.174C41.3098 29.174 41.19 29.1253 41.0952 29.0277C41.0004 28.9302 40.9403 28.7878 40.9151 28.6004L41.122 28.5201C41.1417 28.6387 41.179 28.7276 41.2338 28.7868C41.2892 28.8461 41.3615 28.8757 41.4508 28.8757C41.5525 28.8757 41.6331 28.8423 41.6929 28.7754C41.7532 28.7075 41.7834 28.6262 41.7834 28.5316C41.7834 28.4551 41.7662 28.3911 41.7317 28.3394C41.6972 28.2868 41.6442 28.2477 41.5728 28.2218L41.3363 28.1358C41.2064 28.088 41.1109 28.0139 41.0499 27.9135C40.9896 27.8122 40.9594 27.6855 40.9594 27.5335C40.9594 27.4092 40.9819 27.2993 41.0268 27.2037C41.0724 27.1081 41.1343 27.0331 41.2125 26.9786C41.2913 26.9241 41.3806 26.8968 41.4804 26.8968C41.6208 26.8968 41.7311 26.9446 41.8111 27.0402C41.8918 27.1358 41.9491 27.262 41.9829 27.4188Z" fill="#23C36C"/>
<path d="M43.645 29.174C43.517 29.174 43.4046 29.1267 43.3079 29.0321C43.2118 28.9374 43.1367 28.805 43.0825 28.6348C43.0289 28.4647 43.0021 28.2658 43.0021 28.0383C43.0021 27.8089 43.0289 27.6086 43.0825 27.4374C43.1367 27.2663 43.2118 27.1334 43.3079 27.0388C43.4046 26.9441 43.517 26.8968 43.645 26.8968C43.7731 26.8968 43.8852 26.9441 43.9813 27.0388C44.078 27.1334 44.1531 27.2663 44.2067 27.4374C44.2609 27.6086 44.288 27.8089 44.288 28.0383C44.288 28.2658 44.2609 28.4647 44.2067 28.6348C44.1531 28.805 44.078 28.9374 43.9813 29.0321C43.8852 29.1267 43.7731 29.174 43.645 29.174ZM43.645 28.87C43.7424 28.87 43.8224 28.8313 43.8852 28.7539C43.948 28.6764 43.9945 28.5746 44.0247 28.4484C44.0549 28.3222 44.07 28.1855 44.07 28.0383C44.07 27.8911 44.0549 27.7539 44.0247 27.6267C43.9945 27.4996 43.948 27.3968 43.8852 27.3184C43.8224 27.24 43.7424 27.2008 43.645 27.2008C43.5477 27.2008 43.4677 27.24 43.4049 27.3184C43.342 27.3968 43.2956 27.4996 43.2654 27.6267C43.2352 27.7539 43.2201 27.8911 43.2201 28.0383C43.2201 28.1855 43.2352 28.3222 43.2654 28.4484C43.2956 28.5746 43.342 28.6764 43.4049 28.7539C43.4677 28.8313 43.5477 28.87 43.645 28.87Z" fill="#23C36C"/>
<path d="M44.6208 29.9541V26.9255H44.8314V27.2754H44.8573C44.8733 27.2372 44.8955 27.1884 44.9238 27.1291C44.9527 27.0689 44.994 27.0154 45.0476 26.9685C45.1018 26.9207 45.1751 26.8968 45.2674 26.8968C45.3869 26.8968 45.4922 26.9432 45.5834 27.0359C45.6745 27.1287 45.7456 27.2601 45.7968 27.4303C45.8479 27.6004 45.8734 27.8012 45.8734 28.0326C45.8734 28.2658 45.8479 28.468 45.7968 28.6391C45.7456 28.8093 45.6748 28.9412 45.5843 29.0349C45.4938 29.1277 45.3894 29.174 45.2711 29.174C45.18 29.174 45.107 29.1506 45.0522 29.1038C44.9974 29.056 44.9552 29.0019 44.9256 28.9417C44.8961 28.8805 44.8733 28.8299 44.8573 28.7897H44.8388V29.9541H44.6208ZM44.8351 28.0268C44.8351 28.1932 44.8508 28.3399 44.8822 28.4671C44.9136 28.5932 44.9595 28.6922 45.0199 28.7639C45.0802 28.8346 45.1541 28.87 45.2416 28.87C45.3327 28.87 45.4088 28.8327 45.4697 28.7582C45.5313 28.6826 45.5775 28.5813 45.6083 28.4542C45.6397 28.326 45.6554 28.1836 45.6554 28.0268C45.6554 27.8719 45.64 27.7324 45.6092 27.6081C45.5791 27.4829 45.5332 27.3839 45.4716 27.3113C45.4106 27.2376 45.3339 27.2008 45.2416 27.2008C45.1529 27.2008 45.0784 27.2357 45.018 27.3055C44.9577 27.3744 44.9121 27.4709 44.8813 27.5952C44.8505 27.7185 44.8351 27.8624 44.8351 28.0268Z" fill="#23C36C"/>
<path d="M46.206 29.9541V26.9255H46.4166V27.2754H46.4425C46.4585 27.2372 46.4807 27.1884 46.509 27.1291C46.5379 27.0689 46.5792 27.0154 46.6328 26.9685C46.687 26.9207 46.7603 26.8968 46.8526 26.8968C46.9721 26.8968 47.0774 26.9432 47.1686 27.0359C47.2597 27.1287 47.3308 27.2601 47.382 27.4303C47.4331 27.6004 47.4586 27.8012 47.4586 28.0326C47.4586 28.2658 47.4331 28.468 47.382 28.6391C47.3308 28.8093 47.26 28.9412 47.1695 29.0349C47.079 29.1277 46.9746 29.174 46.8563 29.174C46.7652 29.174 46.6922 29.1506 46.6374 29.1038C46.5826 29.056 46.5404 29.0019 46.5108 28.9417C46.4813 28.8805 46.4585 28.8299 46.4425 28.7897H46.424V29.9541H46.206ZM46.4203 28.0268C46.4203 28.1932 46.436 28.3399 46.4674 28.4671C46.4988 28.5932 46.5447 28.6922 46.6051 28.7639C46.6654 28.8346 46.7393 28.87 46.8268 28.87C46.9179 28.87 46.994 28.8327 47.0549 28.7582C47.1165 28.6826 47.1627 28.5813 47.1935 28.4542C47.2249 28.326 47.2406 28.1836 47.2406 28.0268C47.2406 27.8719 47.2252 27.7324 47.1944 27.6081C47.1643 27.4829 47.1184 27.3839 47.0568 27.3113C46.9958 27.2376 46.9191 27.2008 46.8268 27.2008C46.7381 27.2008 46.6636 27.2357 46.6032 27.3055C46.5429 27.3744 46.4973 27.4709 46.4665 27.5952C46.4357 27.7185 46.4203 27.8624 46.4203 28.0268Z" fill="#23C36C"/>
<path d="M48.3676 29.174C48.2395 29.174 48.1271 29.1267 48.0304 29.0321C47.9344 28.9374 47.8592 28.805 47.805 28.6348C47.7515 28.4647 47.7247 28.2658 47.7247 28.0383C47.7247 27.8089 47.7515 27.6086 47.805 27.4374C47.8592 27.2663 47.9344 27.1334 48.0304 27.0388C48.1271 26.9441 48.2395 26.8968 48.3676 26.8968C48.4957 26.8968 48.6078 26.9441 48.7039 27.0388C48.8006 27.1334 48.8757 27.2663 48.9293 27.4374C48.9835 27.6086 49.0106 27.8089 49.0106 28.0383C49.0106 28.2658 48.9835 28.4647 48.9293 28.6348C48.8757 28.805 48.8006 28.9374 48.7039 29.0321C48.6078 29.1267 48.4957 29.174 48.3676 29.174ZM48.3676 28.87C48.4649 28.87 48.545 28.8313 48.6078 28.7539C48.6706 28.6764 48.7171 28.5746 48.7473 28.4484C48.7775 28.3222 48.7926 28.1855 48.7926 28.0383C48.7926 27.8911 48.7775 27.7539 48.7473 27.6267C48.7171 27.4996 48.6706 27.3968 48.6078 27.3184C48.545 27.24 48.4649 27.2008 48.3676 27.2008C48.2703 27.2008 48.1903 27.24 48.1274 27.3184C48.0646 27.3968 48.0181 27.4996 47.988 27.6267C47.9578 27.7539 47.9427 27.8911 47.9427 28.0383C47.9427 28.1855 47.9578 28.3222 47.988 28.4484C48.0181 28.5746 48.0646 28.6764 48.1274 28.7539C48.1903 28.8313 48.2703 28.87 48.3676 28.87Z" fill="#23C36C"/>
<path d="M49.3434 29.1281V26.9255H49.554V27.2582H49.5688C49.5946 27.1492 49.6414 27.0608 49.7092 26.9929C49.7769 26.925 49.8533 26.8911 49.9383 26.8911C49.9543 26.8911 49.9743 26.8916 49.9983 26.8925C50.0223 26.8935 50.0405 26.8949 50.0528 26.8968V27.241C50.0454 27.2381 50.0285 27.2338 50.002 27.2281C49.9762 27.2214 49.9487 27.218 49.9198 27.218C49.8508 27.218 49.7892 27.2405 49.735 27.2854C49.6815 27.3294 49.639 27.3906 49.6076 27.469C49.5768 27.5464 49.5614 27.6349 49.5614 27.7343V29.1281H49.3434Z" fill="#23C36C"/>
<path d="M51.0172 26.9255V27.2123H50.2819V26.9255H51.0172ZM50.4962 26.3978H50.7143V28.4972C50.7143 28.5928 50.7232 28.6645 50.741 28.7123C50.7595 28.7591 50.7829 28.7907 50.8112 28.8069C50.8402 28.8222 50.8707 28.8299 50.9027 28.8299C50.9267 28.8299 50.9464 28.8279 50.9618 28.8241C50.9772 28.8193 50.9895 28.8155 50.9988 28.8126L51.0431 29.1167C51.0283 29.1253 51.0077 29.1339 50.9812 29.1425C50.9547 29.152 50.9212 29.1568 50.8805 29.1568C50.8189 29.1568 50.7586 29.1363 50.6995 29.0951C50.641 29.054 50.5923 28.9914 50.5535 28.9073C50.5153 28.8232 50.4962 28.717 50.4962 28.5889V26.3978Z" fill="#23C36C"/>
<path d="M52.2394 28.2276V26.9255H52.4574V29.1281H52.2394V28.7553H52.2246C52.1914 28.8671 52.1396 28.9623 52.0694 29.0407C51.9992 29.1181 51.9105 29.1568 51.8034 29.1568C51.7147 29.1568 51.6359 29.1267 51.5669 29.0665C51.4979 29.0053 51.4437 28.9135 51.4043 28.7911C51.3649 28.6678 51.3452 28.5125 51.3452 28.3251V26.9255H51.5632V28.3021C51.5632 28.4628 51.5921 28.5909 51.65 28.6865C51.7085 28.7821 51.7831 28.8299 51.8736 28.8299C51.9278 28.8299 51.9829 28.8083 52.0389 28.7653C52.0956 28.7223 52.143 28.6563 52.1812 28.5674C52.22 28.4785 52.2394 28.3652 52.2394 28.2276Z" fill="#23C36C"/>
<path d="M53.0747 27.8031V29.1281H52.8567V26.9255H53.0673V27.2697H53.0858C53.1191 27.1578 53.1696 27.068 53.2373 27.0001C53.3051 26.9312 53.3925 26.8968 53.4997 26.8968C53.5957 26.8968 53.6798 26.9274 53.7519 26.9886C53.8239 27.0488 53.88 27.1406 53.92 27.2639C53.96 27.3863 53.98 27.5412 53.98 27.7285V29.1281H53.762V27.7515C53.762 27.5785 53.7331 27.4437 53.6752 27.3471C53.6173 27.2496 53.5379 27.2008 53.4369 27.2008C53.3673 27.2008 53.3051 27.2243 53.2502 27.2711C53.1961 27.3179 53.1533 27.3863 53.1218 27.4762C53.0904 27.566 53.0747 27.675 53.0747 27.8031Z" fill="#23C36C"/>
<path d="M54.3784 29.1281V26.9255H54.5964V29.1281H54.3784ZM54.4893 26.5584C54.4468 26.5584 54.4101 26.5359 54.3793 26.491C54.3492 26.4461 54.3341 26.3921 54.3341 26.329C54.3341 26.2659 54.3492 26.2119 54.3793 26.1669C54.4101 26.122 54.4468 26.0995 54.4893 26.0995C54.5318 26.0995 54.5681 26.122 54.5983 26.1669C54.6291 26.2119 54.6445 26.2659 54.6445 26.329C54.6445 26.3921 54.6291 26.4461 54.5983 26.491C54.5681 26.5359 54.5318 26.5584 54.4893 26.5584Z" fill="#23C36C"/>
<path d="M55.6128 26.9255V27.2123H54.8775V26.9255H55.6128ZM55.0918 26.3978H55.3098V28.4972C55.3098 28.5928 55.3187 28.6645 55.3366 28.7123C55.3551 28.7591 55.3785 28.7907 55.4068 28.8069C55.4358 28.8222 55.4662 28.8299 55.4983 28.8299C55.5223 28.8299 55.542 28.8279 55.5574 28.8241C55.5728 28.8193 55.5851 28.8155 55.5943 28.8126L55.6387 29.1167C55.6239 29.1253 55.6033 29.1339 55.5768 29.1425C55.5503 29.152 55.5167 29.1568 55.4761 29.1568C55.4145 29.1568 55.3542 29.1363 55.295 29.0951C55.2365 29.054 55.1879 28.9914 55.1491 28.9073C55.1109 28.8232 55.0918 28.717 55.0918 28.5889V26.3978Z" fill="#23C36C"/>
<path d="M55.9408 29.1281V26.9255H56.1588V29.1281H55.9408ZM56.0516 26.5584C56.0091 26.5584 55.9725 26.5359 55.9417 26.491C55.9115 26.4461 55.8964 26.3921 55.8964 26.329C55.8964 26.2659 55.9115 26.2119 55.9417 26.1669C55.9725 26.122 56.0091 26.0995 56.0516 26.0995C56.0941 26.0995 56.1304 26.122 56.1606 26.1669C56.1914 26.2119 56.2068 26.2659 56.2068 26.329C56.2068 26.3921 56.1914 26.4461 56.1606 26.491C56.1304 26.5359 56.0941 26.5584 56.0516 26.5584Z" fill="#23C36C"/>
<path d="M57.153 29.174C57.0163 29.174 56.8983 29.1272 56.7992 29.0335C56.7006 28.9388 56.6246 28.8069 56.571 28.6377C56.518 28.4675 56.4916 28.2696 56.4916 28.044C56.4916 27.8184 56.518 27.6196 56.571 27.4475C56.6246 27.2744 56.6991 27.1397 56.7945 27.0431C56.8906 26.9456 57.0027 26.8968 57.1308 26.8968C57.2047 26.8968 57.2777 26.9159 57.3497 26.9542C57.4218 26.9924 57.4874 27.0546 57.5465 27.1406C57.6056 27.2257 57.6527 27.3385 57.6878 27.479C57.7229 27.6196 57.7405 27.7926 57.7405 27.9981V28.1415H56.6467V27.849H57.5188C57.5188 27.7247 57.5028 27.6138 57.4708 27.5163C57.4393 27.4188 57.3944 27.3418 57.3359 27.2854C57.278 27.229 57.2096 27.2008 57.1308 27.2008C57.044 27.2008 56.9688 27.2343 56.9054 27.3012C56.8426 27.3672 56.7942 27.4532 56.7604 27.5593C56.7265 27.6655 56.7096 27.7792 56.7096 27.9006V28.0956C56.7096 28.262 56.728 28.403 56.765 28.5187C56.8026 28.6334 56.8546 28.7209 56.9211 28.7811C56.9876 28.8404 57.0649 28.87 57.153 28.87C57.2102 28.87 57.262 28.8576 57.3082 28.8327C57.355 28.8069 57.3953 28.7687 57.4292 28.718C57.4631 28.6664 57.4892 28.6023 57.5077 28.5258L57.7183 28.6176C57.6962 28.7285 57.6589 28.826 57.6066 28.9102C57.5542 28.9933 57.4895 29.0583 57.4126 29.1052C57.3356 29.1511 57.249 29.174 57.153 29.174Z" fill="#23C36C"/>
<path d="M59.0772 27.4188L58.8814 27.5048C58.869 27.4542 58.8509 27.4049 58.8269 27.3571C58.8035 27.3084 58.7714 27.2682 58.7308 27.2367C58.6901 27.2051 58.6381 27.1894 58.5747 27.1894C58.4878 27.1894 58.4155 27.2204 58.3576 27.2826C58.3003 27.3438 58.2717 27.4217 58.2717 27.5163C58.2717 27.6004 58.2914 27.6669 58.3308 27.7156C58.3702 27.7644 58.4318 27.805 58.5155 27.8375L58.7262 27.9178C58.853 27.9656 58.9476 28.0388 59.0098 28.1372C59.072 28.2347 59.1031 28.3605 59.1031 28.5144C59.1031 28.6406 59.0797 28.7534 59.0329 28.8528C58.9867 28.9522 58.922 29.0306 58.8389 29.088C58.7557 29.1453 58.659 29.174 58.5488 29.174C58.4041 29.174 58.2843 29.1253 58.1895 29.0277C58.0946 28.9302 58.0346 28.7878 58.0093 28.6004L58.2162 28.5201C58.236 28.6387 58.2732 28.7276 58.328 28.7868C58.3834 28.8461 58.4558 28.8757 58.5451 28.8757C58.6467 28.8757 58.7274 28.8423 58.7871 28.7754C58.8475 28.7075 58.8777 28.6262 58.8777 28.5316C58.8777 28.4551 58.8604 28.3911 58.8259 28.3394C58.7915 28.2868 58.7385 28.2477 58.667 28.2218L58.4306 28.1358C58.3006 28.088 58.2052 28.0139 58.1442 27.9135C58.0838 27.8122 58.0537 27.6855 58.0537 27.5335C58.0537 27.4092 58.0761 27.2993 58.1211 27.2037C58.1667 27.1081 58.2286 27.0331 58.3068 26.9786C58.3856 26.9241 58.4749 26.8968 58.5747 26.8968C58.7151 26.8968 58.8253 26.9446 58.9054 27.0402C58.9861 27.1358 59.0433 27.262 59.0772 27.4188Z" fill="#23C36C"/>
</svg>
